<mxfile host="app.diagrams.net" agent="Mozilla/5.0 (Windows NT 10.0; Win64; x64) AppleWebKit/537.36 (KHTML, like Gecko) Chrome/131.0.0.0 Safari/537.36 Edg/131.0.0.0" version="26.0.5">
  <diagram id="C5RBs43oDa-KdzZeNtuy" name="Page-1">
    <mxGraphModel dx="1050" dy="658" grid="1" gridSize="10" guides="1" tooltips="1" connect="1" arrows="1" fold="1" page="1" pageScale="1" pageWidth="827" pageHeight="1169" math="0" shadow="0">
      <root>
        <mxCell id="WIyWlLk6GJQsqaUBKTNV-0" />
        <mxCell id="WIyWlLk6GJQsqaUBKTNV-1" parent="WIyWlLk6GJQsqaUBKTNV-0" />
        <mxCell id="vNF6_P6XF1Y0Fw0vk5Ng-10" value="" style="edgeStyle=orthogonalEdgeStyle;rounded=0;orthogonalLoop=1;jettySize=auto;html=1;" edge="1" parent="WIyWlLk6GJQsqaUBKTNV-1" source="WIyWlLk6GJQsqaUBKTNV-3" target="WIyWlLk6GJQsqaUBKTNV-6">
          <mxGeometry relative="1" as="geometry" />
        </mxCell>
        <mxCell id="WIyWlLk6GJQsqaUBKTNV-3" value="当前节点(初始为根)" style="rounded=1;whiteSpace=wrap;html=1;fontSize=12;glass=0;strokeWidth=1;shadow=0;" parent="WIyWlLk6GJQsqaUBKTNV-1" vertex="1">
          <mxGeometry x="255" y="140" width="120" height="40" as="geometry" />
        </mxCell>
        <mxCell id="vNF6_P6XF1Y0Fw0vk5Ng-11" value="" style="edgeStyle=orthogonalEdgeStyle;rounded=0;orthogonalLoop=1;jettySize=auto;html=1;" edge="1" parent="WIyWlLk6GJQsqaUBKTNV-1" source="WIyWlLk6GJQsqaUBKTNV-6" target="WIyWlLk6GJQsqaUBKTNV-7">
          <mxGeometry relative="1" as="geometry">
            <Array as="points">
              <mxPoint x="480" y="280" />
            </Array>
          </mxGeometry>
        </mxCell>
        <mxCell id="vNF6_P6XF1Y0Fw0vk5Ng-14" value="" style="edgeStyle=orthogonalEdgeStyle;rounded=0;orthogonalLoop=1;jettySize=auto;html=1;" edge="1" parent="WIyWlLk6GJQsqaUBKTNV-1" source="WIyWlLk6GJQsqaUBKTNV-6">
          <mxGeometry relative="1" as="geometry">
            <mxPoint x="315" y="360" as="targetPoint" />
          </mxGeometry>
        </mxCell>
        <mxCell id="WIyWlLk6GJQsqaUBKTNV-6" value="是否当前节点为叶子结点" style="rhombus;whiteSpace=wrap;html=1;shadow=0;fontFamily=Helvetica;fontSize=12;align=center;strokeWidth=1;spacing=6;spacingTop=-4;" parent="WIyWlLk6GJQsqaUBKTNV-1" vertex="1">
          <mxGeometry x="240" y="240" width="150" height="80" as="geometry" />
        </mxCell>
        <mxCell id="vNF6_P6XF1Y0Fw0vk5Ng-13" style="edgeStyle=orthogonalEdgeStyle;rounded=0;orthogonalLoop=1;jettySize=auto;html=1;entryX=1;entryY=0.5;entryDx=0;entryDy=0;" edge="1" parent="WIyWlLk6GJQsqaUBKTNV-1" source="WIyWlLk6GJQsqaUBKTNV-7" target="WIyWlLk6GJQsqaUBKTNV-3">
          <mxGeometry relative="1" as="geometry">
            <Array as="points">
              <mxPoint x="480" y="160" />
            </Array>
          </mxGeometry>
        </mxCell>
        <mxCell id="WIyWlLk6GJQsqaUBKTNV-7" value="二分查找,找到对应区间,替换当前节点" style="rounded=1;whiteSpace=wrap;html=1;fontSize=12;glass=0;strokeWidth=1;shadow=0;" parent="WIyWlLk6GJQsqaUBKTNV-1" vertex="1">
          <mxGeometry x="434" y="200" width="120" height="40" as="geometry" />
        </mxCell>
        <mxCell id="vNF6_P6XF1Y0Fw0vk5Ng-4" value="结束" style="rounded=1;whiteSpace=wrap;html=1;fontSize=12;glass=0;strokeWidth=1;shadow=0;" vertex="1" parent="WIyWlLk6GJQsqaUBKTNV-1">
          <mxGeometry x="255" y="823" width="120" height="40" as="geometry" />
        </mxCell>
        <mxCell id="vNF6_P6XF1Y0Fw0vk5Ng-9" value="" style="edgeStyle=orthogonalEdgeStyle;rounded=0;orthogonalLoop=1;jettySize=auto;html=1;" edge="1" parent="WIyWlLk6GJQsqaUBKTNV-1" source="vNF6_P6XF1Y0Fw0vk5Ng-8" target="WIyWlLk6GJQsqaUBKTNV-3">
          <mxGeometry relative="1" as="geometry" />
        </mxCell>
        <mxCell id="vNF6_P6XF1Y0Fw0vk5Ng-8" value="开始" style="rounded=1;whiteSpace=wrap;html=1;fontSize=12;glass=0;strokeWidth=1;shadow=0;" vertex="1" parent="WIyWlLk6GJQsqaUBKTNV-1">
          <mxGeometry x="255" y="50" width="120" height="40" as="geometry" />
        </mxCell>
        <mxCell id="vNF6_P6XF1Y0Fw0vk5Ng-12" value="否" style="text;html=1;align=center;verticalAlign=middle;resizable=0;points=[];autosize=1;strokeColor=none;fillColor=none;" vertex="1" parent="WIyWlLk6GJQsqaUBKTNV-1">
          <mxGeometry x="410" y="248" width="40" height="30" as="geometry" />
        </mxCell>
        <mxCell id="vNF6_P6XF1Y0Fw0vk5Ng-15" value="是" style="text;html=1;align=center;verticalAlign=middle;resizable=0;points=[];autosize=1;strokeColor=none;fillColor=none;" vertex="1" parent="WIyWlLk6GJQsqaUBKTNV-1">
          <mxGeometry x="280" y="320" width="40" height="30" as="geometry" />
        </mxCell>
        <mxCell id="vNF6_P6XF1Y0Fw0vk5Ng-18" value="" style="edgeStyle=orthogonalEdgeStyle;rounded=0;orthogonalLoop=1;jettySize=auto;html=1;" edge="1" parent="WIyWlLk6GJQsqaUBKTNV-1" source="vNF6_P6XF1Y0Fw0vk5Ng-16" target="vNF6_P6XF1Y0Fw0vk5Ng-17">
          <mxGeometry relative="1" as="geometry" />
        </mxCell>
        <mxCell id="vNF6_P6XF1Y0Fw0vk5Ng-16" value="在叶子结点中插入关键字" style="rounded=1;whiteSpace=wrap;html=1;fontSize=12;glass=0;strokeWidth=1;shadow=0;" vertex="1" parent="WIyWlLk6GJQsqaUBKTNV-1">
          <mxGeometry x="255" y="360" width="120" height="40" as="geometry" />
        </mxCell>
        <mxCell id="vNF6_P6XF1Y0Fw0vk5Ng-19" value="" style="edgeStyle=orthogonalEdgeStyle;rounded=0;orthogonalLoop=1;jettySize=auto;html=1;" edge="1" parent="WIyWlLk6GJQsqaUBKTNV-1" source="vNF6_P6XF1Y0Fw0vk5Ng-17" target="vNF6_P6XF1Y0Fw0vk5Ng-4">
          <mxGeometry relative="1" as="geometry" />
        </mxCell>
        <mxCell id="vNF6_P6XF1Y0Fw0vk5Ng-22" value="" style="edgeStyle=orthogonalEdgeStyle;rounded=0;orthogonalLoop=1;jettySize=auto;html=1;" edge="1" parent="WIyWlLk6GJQsqaUBKTNV-1" source="vNF6_P6XF1Y0Fw0vk5Ng-17" target="vNF6_P6XF1Y0Fw0vk5Ng-21">
          <mxGeometry relative="1" as="geometry" />
        </mxCell>
        <mxCell id="vNF6_P6XF1Y0Fw0vk5Ng-17" value="是否关键字数量大于限制" style="rhombus;whiteSpace=wrap;html=1;shadow=0;fontFamily=Helvetica;fontSize=12;align=center;strokeWidth=1;spacing=6;spacingTop=-4;" vertex="1" parent="WIyWlLk6GJQsqaUBKTNV-1">
          <mxGeometry x="240" y="440" width="150" height="80" as="geometry" />
        </mxCell>
        <mxCell id="vNF6_P6XF1Y0Fw0vk5Ng-20" value="否" style="text;html=1;align=center;verticalAlign=middle;resizable=0;points=[];autosize=1;strokeColor=none;fillColor=none;" vertex="1" parent="WIyWlLk6GJQsqaUBKTNV-1">
          <mxGeometry x="280" y="650" width="40" height="30" as="geometry" />
        </mxCell>
        <mxCell id="vNF6_P6XF1Y0Fw0vk5Ng-39" style="edgeStyle=orthogonalEdgeStyle;rounded=0;orthogonalLoop=1;jettySize=auto;html=1;entryX=0;entryY=0.5;entryDx=0;entryDy=0;" edge="1" parent="WIyWlLk6GJQsqaUBKTNV-1" source="vNF6_P6XF1Y0Fw0vk5Ng-21" target="vNF6_P6XF1Y0Fw0vk5Ng-34">
          <mxGeometry relative="1" as="geometry" />
        </mxCell>
        <mxCell id="vNF6_P6XF1Y0Fw0vk5Ng-21" value="叶子节点分裂(左少右多)" style="rounded=1;whiteSpace=wrap;html=1;fontSize=12;glass=0;strokeWidth=1;shadow=0;" vertex="1" parent="WIyWlLk6GJQsqaUBKTNV-1">
          <mxGeometry x="429" y="460" width="130" height="40" as="geometry" />
        </mxCell>
        <mxCell id="vNF6_P6XF1Y0Fw0vk5Ng-23" value="是" style="text;html=1;align=center;verticalAlign=middle;resizable=0;points=[];autosize=1;strokeColor=none;fillColor=none;" vertex="1" parent="WIyWlLk6GJQsqaUBKTNV-1">
          <mxGeometry x="389" y="450" width="40" height="30" as="geometry" />
        </mxCell>
        <mxCell id="vNF6_P6XF1Y0Fw0vk5Ng-58" style="edgeStyle=orthogonalEdgeStyle;rounded=0;orthogonalLoop=1;jettySize=auto;html=1;" edge="1" parent="WIyWlLk6GJQsqaUBKTNV-1" source="vNF6_P6XF1Y0Fw0vk5Ng-32" target="vNF6_P6XF1Y0Fw0vk5Ng-34">
          <mxGeometry relative="1" as="geometry" />
        </mxCell>
        <mxCell id="vNF6_P6XF1Y0Fw0vk5Ng-32" value="内部节点分裂" style="rounded=1;whiteSpace=wrap;html=1;fontSize=12;glass=0;strokeWidth=1;shadow=0;" vertex="1" parent="WIyWlLk6GJQsqaUBKTNV-1">
          <mxGeometry x="780" y="460" width="130" height="40" as="geometry" />
        </mxCell>
        <mxCell id="vNF6_P6XF1Y0Fw0vk5Ng-52" value="" style="edgeStyle=orthogonalEdgeStyle;rounded=0;orthogonalLoop=1;jettySize=auto;html=1;" edge="1" parent="WIyWlLk6GJQsqaUBKTNV-1" source="vNF6_P6XF1Y0Fw0vk5Ng-33" target="vNF6_P6XF1Y0Fw0vk5Ng-51">
          <mxGeometry relative="1" as="geometry" />
        </mxCell>
        <mxCell id="vNF6_P6XF1Y0Fw0vk5Ng-33" value="将新结点加入父结点" style="rounded=1;whiteSpace=wrap;html=1;fontSize=12;glass=0;strokeWidth=1;shadow=0;" vertex="1" parent="WIyWlLk6GJQsqaUBKTNV-1">
          <mxGeometry x="710" y="590" width="140" height="40" as="geometry" />
        </mxCell>
        <mxCell id="vNF6_P6XF1Y0Fw0vk5Ng-47" style="edgeStyle=orthogonalEdgeStyle;rounded=0;orthogonalLoop=1;jettySize=auto;html=1;entryX=0.5;entryY=0;entryDx=0;entryDy=0;" edge="1" parent="WIyWlLk6GJQsqaUBKTNV-1" source="vNF6_P6XF1Y0Fw0vk5Ng-34" target="vNF6_P6XF1Y0Fw0vk5Ng-35">
          <mxGeometry relative="1" as="geometry" />
        </mxCell>
        <mxCell id="vNF6_P6XF1Y0Fw0vk5Ng-49" style="edgeStyle=orthogonalEdgeStyle;rounded=0;orthogonalLoop=1;jettySize=auto;html=1;entryX=0;entryY=0.5;entryDx=0;entryDy=0;" edge="1" parent="WIyWlLk6GJQsqaUBKTNV-1" source="vNF6_P6XF1Y0Fw0vk5Ng-34" target="vNF6_P6XF1Y0Fw0vk5Ng-33">
          <mxGeometry relative="1" as="geometry" />
        </mxCell>
        <mxCell id="vNF6_P6XF1Y0Fw0vk5Ng-34" value="是否结点的父亲为空" style="rhombus;whiteSpace=wrap;html=1;shadow=0;fontFamily=Helvetica;fontSize=12;align=center;strokeWidth=1;spacing=6;spacingTop=-4;" vertex="1" parent="WIyWlLk6GJQsqaUBKTNV-1">
          <mxGeometry x="520" y="570" width="150" height="80" as="geometry" />
        </mxCell>
        <mxCell id="vNF6_P6XF1Y0Fw0vk5Ng-48" style="edgeStyle=orthogonalEdgeStyle;rounded=0;orthogonalLoop=1;jettySize=auto;html=1;entryX=1;entryY=0.5;entryDx=0;entryDy=0;" edge="1" parent="WIyWlLk6GJQsqaUBKTNV-1" source="vNF6_P6XF1Y0Fw0vk5Ng-35" target="vNF6_P6XF1Y0Fw0vk5Ng-4">
          <mxGeometry relative="1" as="geometry">
            <Array as="points">
              <mxPoint x="595" y="843" />
            </Array>
          </mxGeometry>
        </mxCell>
        <mxCell id="vNF6_P6XF1Y0Fw0vk5Ng-35" value="新建根结点" style="rounded=1;whiteSpace=wrap;html=1;fontSize=12;glass=0;strokeWidth=1;shadow=0;" vertex="1" parent="WIyWlLk6GJQsqaUBKTNV-1">
          <mxGeometry x="530" y="750" width="130" height="40" as="geometry" />
        </mxCell>
        <mxCell id="vNF6_P6XF1Y0Fw0vk5Ng-38" value="是" style="text;html=1;align=center;verticalAlign=middle;resizable=0;points=[];autosize=1;strokeColor=none;fillColor=none;" vertex="1" parent="WIyWlLk6GJQsqaUBKTNV-1">
          <mxGeometry x="585" y="670" width="40" height="30" as="geometry" />
        </mxCell>
        <mxCell id="vNF6_P6XF1Y0Fw0vk5Ng-50" value="否" style="text;html=1;align=center;verticalAlign=middle;resizable=0;points=[];autosize=1;strokeColor=none;fillColor=none;" vertex="1" parent="WIyWlLk6GJQsqaUBKTNV-1">
          <mxGeometry x="670" y="588" width="40" height="30" as="geometry" />
        </mxCell>
        <mxCell id="vNF6_P6XF1Y0Fw0vk5Ng-53" style="edgeStyle=orthogonalEdgeStyle;rounded=0;orthogonalLoop=1;jettySize=auto;html=1;entryX=1;entryY=0.5;entryDx=0;entryDy=0;" edge="1" parent="WIyWlLk6GJQsqaUBKTNV-1" source="vNF6_P6XF1Y0Fw0vk5Ng-51" target="vNF6_P6XF1Y0Fw0vk5Ng-4">
          <mxGeometry relative="1" as="geometry">
            <Array as="points">
              <mxPoint x="780" y="843" />
            </Array>
          </mxGeometry>
        </mxCell>
        <mxCell id="vNF6_P6XF1Y0Fw0vk5Ng-56" style="edgeStyle=orthogonalEdgeStyle;rounded=0;orthogonalLoop=1;jettySize=auto;html=1;" edge="1" parent="WIyWlLk6GJQsqaUBKTNV-1" source="vNF6_P6XF1Y0Fw0vk5Ng-51" target="vNF6_P6XF1Y0Fw0vk5Ng-32">
          <mxGeometry relative="1" as="geometry">
            <Array as="points">
              <mxPoint x="880" y="740" />
            </Array>
          </mxGeometry>
        </mxCell>
        <mxCell id="vNF6_P6XF1Y0Fw0vk5Ng-51" value="是否关键字数量大于限制" style="rhombus;whiteSpace=wrap;html=1;shadow=0;fontFamily=Helvetica;fontSize=12;align=center;strokeWidth=1;spacing=6;spacingTop=-4;" vertex="1" parent="WIyWlLk6GJQsqaUBKTNV-1">
          <mxGeometry x="705" y="700" width="150" height="80" as="geometry" />
        </mxCell>
        <mxCell id="vNF6_P6XF1Y0Fw0vk5Ng-54" value="否" style="text;html=1;align=center;verticalAlign=middle;resizable=0;points=[];autosize=1;strokeColor=none;fillColor=none;" vertex="1" parent="WIyWlLk6GJQsqaUBKTNV-1">
          <mxGeometry x="780" y="780" width="40" height="30" as="geometry" />
        </mxCell>
        <mxCell id="vNF6_P6XF1Y0Fw0vk5Ng-57" value="是" style="text;html=1;align=center;verticalAlign=middle;resizable=0;points=[];autosize=1;strokeColor=none;fillColor=none;" vertex="1" parent="WIyWlLk6GJQsqaUBKTNV-1">
          <mxGeometry x="860" y="740" width="40" height="30" as="geometry" />
        </mxCell>
        <mxCell id="vNF6_P6XF1Y0Fw0vk5Ng-59" value="复制key值上升" style="text;html=1;align=center;verticalAlign=middle;resizable=0;points=[];autosize=1;strokeColor=none;fillColor=none;" vertex="1" parent="WIyWlLk6GJQsqaUBKTNV-1">
          <mxGeometry x="450" y="428" width="100" height="30" as="geometry" />
        </mxCell>
        <mxCell id="vNF6_P6XF1Y0Fw0vk5Ng-60" value="原key值上升" style="text;html=1;align=center;verticalAlign=middle;resizable=0;points=[];autosize=1;strokeColor=none;fillColor=none;" vertex="1" parent="WIyWlLk6GJQsqaUBKTNV-1">
          <mxGeometry x="795" y="428" width="90" height="30" as="geometry" />
        </mxCell>
      </root>
    </mxGraphModel>
  </diagram>
</mxfile>
